<mxfile host="app.diagrams.net" agent="Mozilla/5.0 (Windows NT 10.0; Win64; x64) AppleWebKit/537.36 (KHTML, like Gecko) Chrome/130.0.0.0 Safari/537.36" version="24.8.3">
  <diagram id="C5RBs43oDa-KdzZeNtuy" name="Page-1">
    <mxGraphModel dx="1290" dy="530" grid="1" gridSize="10" guides="1" tooltips="1" connect="1" arrows="1" fold="1" page="1" pageScale="1" pageWidth="827" pageHeight="1169" math="0" shadow="0">
      <root>
        <mxCell id="WIyWlLk6GJQsqaUBKTNV-0" />
        <mxCell id="WIyWlLk6GJQsqaUBKTNV-1" parent="WIyWlLk6GJQsqaUBKTNV-0" />
        <mxCell id="ATSFZhMvsx6OHV2ij-uX-13" value="" style="edgeStyle=orthogonalEdgeStyle;rounded=0;orthogonalLoop=1;jettySize=auto;html=1;" edge="1" parent="WIyWlLk6GJQsqaUBKTNV-1" source="ATSFZhMvsx6OHV2ij-uX-0" target="ATSFZhMvsx6OHV2ij-uX-3">
          <mxGeometry relative="1" as="geometry" />
        </mxCell>
        <mxCell id="ATSFZhMvsx6OHV2ij-uX-0" value="Inicio" style="ellipse;whiteSpace=wrap;html=1;aspect=fixed;fillColor=#FFFFFF;" vertex="1" parent="WIyWlLk6GJQsqaUBKTNV-1">
          <mxGeometry x="280" y="90" width="80" height="80" as="geometry" />
        </mxCell>
        <mxCell id="ATSFZhMvsx6OHV2ij-uX-4" value="" style="edgeStyle=orthogonalEdgeStyle;rounded=0;orthogonalLoop=1;jettySize=auto;html=1;" edge="1" parent="WIyWlLk6GJQsqaUBKTNV-1" target="ATSFZhMvsx6OHV2ij-uX-3">
          <mxGeometry relative="1" as="geometry">
            <mxPoint x="320" y="280" as="sourcePoint" />
          </mxGeometry>
        </mxCell>
        <mxCell id="ATSFZhMvsx6OHV2ij-uX-6" value="" style="edgeStyle=orthogonalEdgeStyle;rounded=0;orthogonalLoop=1;jettySize=auto;html=1;" edge="1" parent="WIyWlLk6GJQsqaUBKTNV-1" source="ATSFZhMvsx6OHV2ij-uX-3" target="ATSFZhMvsx6OHV2ij-uX-5">
          <mxGeometry relative="1" as="geometry" />
        </mxCell>
        <mxCell id="ATSFZhMvsx6OHV2ij-uX-3" value="Mostrar mensaje: &quot;por favor, ingrese las medidas de la pieza del mueble (en cms): &quot;" style="shape=parallelogram;perimeter=parallelogramPerimeter;whiteSpace=wrap;html=1;fixedSize=1;fillColor=#FFFF99;" vertex="1" parent="WIyWlLk6GJQsqaUBKTNV-1">
          <mxGeometry x="228.75" y="200" width="182.5" height="80" as="geometry" />
        </mxCell>
        <mxCell id="ATSFZhMvsx6OHV2ij-uX-8" value="" style="edgeStyle=orthogonalEdgeStyle;rounded=0;orthogonalLoop=1;jettySize=auto;html=1;" edge="1" parent="WIyWlLk6GJQsqaUBKTNV-1" source="ATSFZhMvsx6OHV2ij-uX-11" target="ATSFZhMvsx6OHV2ij-uX-7">
          <mxGeometry relative="1" as="geometry" />
        </mxCell>
        <mxCell id="ATSFZhMvsx6OHV2ij-uX-5" value="Convertir medidas_en_pulgadas = medida_en_cms /2.54" style="rounded=1;whiteSpace=wrap;html=1;fillColor=#6BF5FF;" vertex="1" parent="WIyWlLk6GJQsqaUBKTNV-1">
          <mxGeometry x="245" y="300" width="150" height="80" as="geometry" />
        </mxCell>
        <mxCell id="ATSFZhMvsx6OHV2ij-uX-7" value="Fin" style="ellipse;whiteSpace=wrap;html=1;aspect=fixed;fillColor=#FFFFFF;" vertex="1" parent="WIyWlLk6GJQsqaUBKTNV-1">
          <mxGeometry x="280" y="520" width="80" height="80" as="geometry" />
        </mxCell>
        <mxCell id="ATSFZhMvsx6OHV2ij-uX-12" value="" style="edgeStyle=orthogonalEdgeStyle;rounded=0;orthogonalLoop=1;jettySize=auto;html=1;" edge="1" parent="WIyWlLk6GJQsqaUBKTNV-1" source="ATSFZhMvsx6OHV2ij-uX-5" target="ATSFZhMvsx6OHV2ij-uX-11">
          <mxGeometry relative="1" as="geometry">
            <mxPoint x="320" y="390" as="sourcePoint" />
            <mxPoint x="320" y="520" as="targetPoint" />
          </mxGeometry>
        </mxCell>
        <mxCell id="ATSFZhMvsx6OHV2ij-uX-11" value="&lt;br&gt;&lt;div style=&quot;&quot;&gt;&lt;span style=&quot;font-family: Verdana;&quot;&gt;Mostrar mensaje: &quot;Las medidas en pulgadas de la pieza ingresada son: &quot;, medidas_en_pulgadas&lt;/span&gt;&lt;/div&gt;&lt;div style=&quot;&quot;&gt;&lt;br&gt;&lt;/div&gt;" style="shape=parallelogram;perimeter=parallelogramPerimeter;whiteSpace=wrap;html=1;fixedSize=1;fillColor=#FFFF99;" vertex="1" parent="WIyWlLk6GJQsqaUBKTNV-1">
          <mxGeometry x="227.5" y="400" width="185" height="100" as="geometry" />
        </mxCell>
      </root>
    </mxGraphModel>
  </diagram>
</mxfile>
